<?xml version="1.0" encoding="UTF-8"?>
<svg version="1.1" xmlns="http://www.w3.org/2000/svg" width="1024" height="1024">
<path d="M0 0 C337.92 0 675.84 0 1024 0 C1024 337.92 1024 675.84 1024 1024 C686.08 1024 348.16 1024 0 1024 C0 686.08 0 348.16 0 0 Z " fill="#EE285B" transform="translate(0,0)"/>
<path d="M0 0 C14.52 0 29.04 0 44 0 C56.46790114 14.00887768 56.46790114 14.00887768 58.92578125 20.00390625 C61.29873436 25.50522174 63.98046129 30.46294429 67.3125 35.4375 C68.08302445 36.67534907 68.84866736 37.91625025 69.609375 39.16015625 C74.58659201 47.20301999 79.82418593 55.08428962 85 63 C85.6595166 64.0091748 86.3190332 65.01834961 86.99853516 66.05810547 C90.57326629 71.52785461 94.14948999 76.99662557 97.7265625 82.46484375 C103.55663227 91.37855413 109.3762368 100.29907136 115.19042969 109.22314453 C116.4250032 111.11764523 117.66004952 113.01183789 118.89550781 114.90576172 C120.72301896 117.70734855 122.54917088 120.50981677 124.375 123.3125 C124.92897461 124.16118652 125.48294922 125.00987305 126.05371094 125.88427734 C126.5593457 126.66109863 127.06498047 127.43791992 127.5859375 128.23828125 C128.0298584 128.91930908 128.4737793 129.60033691 128.93115234 130.30200195 C130 132 130 132 131 134 C131.495 67.67 131.495 67.67 132 0 C146.85 0 161.7 0 177 0 C177 69.63 177 139.26 177 211 C162.48 211 147.96 211 133 211 C127.52473331 202.78709996 122.07881918 194.59773551 116.7331543 186.30688477 C111.70215918 178.50735954 106.59663435 170.75669793 101.5 163 C95.60381794 154.02525095 89.70924206 145.05029054 83.8918457 136.02416992 C80.81881192 131.25754769 77.72014955 126.50811173 74.6159668 121.76171875 C68.19682601 111.94487855 61.8417122 102.09085501 55.56713867 92.1809082 C55.02549072 91.32585693 54.48384277 90.47080566 53.92578125 89.58984375 C53.45567627 88.84597412 52.98557129 88.10210449 52.5012207 87.33569336 C50.70122664 84.53514966 48.84666216 81.76999324 47 79 C46.67 122.56 46.34 166.12 46 211 C30.82 211 15.64 211 0 211 C0 141.37 0 71.74 0 0 Z " fill="#F3F0F1" transform="translate(623,292)"/>
<path d="M0 0 C2.26030785 -0.00434072 4.51860431 -0.04067216 6.77856445 -0.07861328 C35.45258449 -0.30066562 61.73215583 12.14832038 82.53051758 31.55419922 C89.57124281 38.91124689 94.93176039 47.45785358 99.78833008 56.37060547 C100.1230835 56.98121826 100.45783691 57.59183105 100.80273438 58.22094727 C102.75055308 61.94986329 103.62298703 65.23434182 104.22583008 69.37060547 C97.07313566 69.59910343 89.9213836 69.75652953 82.76586914 69.86499023 C80.33289423 69.91020739 77.9001633 69.97159459 75.46801758 70.04956055 C71.96740591 70.15895466 68.47002841 70.20981781 64.96801758 70.24951172 C63.88342255 70.29596329 62.79882751 70.34241486 61.68136597 70.39027405 C54.25699214 70.39521909 54.25699214 70.39521909 51.27960205 67.43673706 C49.69506836 65.04614258 49.69506836 65.04614258 48.44290161 62.66856384 C43.0438186 52.4745303 31.51370584 47.47226298 21.08520508 44.13232422 C3.90078548 39.55450752 -12.77201499 42.24688617 -28.21166992 50.62060547 C-43.7509292 60.44040802 -51.26303456 75.1805642 -55.30249023 92.65625 C-59.12852632 114.67378064 -55.69277575 136.59380747 -43.77416992 155.37060547 C-35.32735992 166.55429305 -21.62439731 174.38701691 -7.77416992 176.37060547 C-3.52590006 176.60590742 0.72163702 176.60144244 4.97583008 176.62060547 C6.10504883 176.64123047 7.23426758 176.66185547 8.39770508 176.68310547 C23.77389324 176.75429153 35.87027665 171.21176986 47.01098633 160.65185547 C53.80283721 153.65636884 59.84390491 144.89830613 62.22583008 135.37060547 C42.42583008 135.37060547 22.62583008 135.37060547 2.22583008 135.37060547 C2.22583008 123.49060547 2.22583008 111.61060547 2.22583008 99.37060547 C36.87583008 99.37060547 71.52583008 99.37060547 107.22583008 99.37060547 C107.22583008 134.10759603 104.01004982 163.45785734 79.22583008 189.37060547 C78.3228418 190.38574219 78.3228418 190.38574219 77.40161133 191.42138672 C64.1229288 205.79462443 45.96267864 213.31095495 27.22583008 217.37060547 C26.33895508 217.59748047 25.45208008 217.82435547 24.53833008 218.05810547 C9.31361098 221.57150218 -7.72242193 220.07650039 -22.77416992 216.37060547 C-23.43578125 216.20963379 -24.09739258 216.04866211 -24.77905273 215.8828125 C-51.39348429 209.12863813 -74.55217804 191.84620779 -88.77416992 168.37060547 C-104.57420115 140.30456678 -106.18529722 103.54882493 -97.64916992 72.87060547 C-90.27476131 48.36121167 -73.44309963 25.65814651 -50.88354492 13.14794922 C-34.46351856 4.47479688 -18.58411249 -0.00397309 0 0 Z " fill="#F3F0F0" transform="translate(322.774169921875,288.62939453125)"/>
<path d="M0 0 C18.81 0 37.62 0 57 0 C73.32165937 44.71311727 73.32165937 44.71311727 79.05297852 61.44995117 C81.56559963 68.78038912 84.18171708 76.06760243 86.84838867 83.34326172 C89.72645759 91.20890525 92.52276449 99.10272655 95.3125 107 C99.00984839 117.46530502 102.78147679 127.90002776 106.625 138.3125 C110.52167602 148.87243683 114.27518039 159.47244245 117.92480469 170.12011719 C120.42094688 177.38555202 123.05415483 184.58427438 125.78125 191.765625 C130 202.96153846 130 202.96153846 130 207 C114.49 207 98.98 207 83 207 C80.60499577 201.01248943 78.31211228 195.22054043 76.421875 189.09375 C76.20557434 188.40236938 75.98927368 187.71098877 75.76641846 186.99865723 C75.31761383 185.56090239 74.87073705 184.12254437 74.42578125 182.68359375 C73.74222934 180.47489134 73.05122245 178.26861636 72.359375 176.0625 C71.92143845 174.65638589 71.48392253 173.25014069 71.046875 171.84375 C70.73759064 170.85634827 70.73759064 170.85634827 70.42205811 169.84899902 C69 165.23094217 69 165.23094217 69 163 C41.61 163 14.22 163 -14 163 C-14.33 164.65 -14.66 166.3 -15 168 C-15.40374337 169.35489067 -15.83413341 170.70213171 -16.29101562 172.04003906 C-16.67646545 173.1758139 -16.67646545 173.1758139 -17.06970215 174.33453369 C-17.34576294 175.13679382 -17.62182373 175.93905396 -17.90625 176.765625 C-18.19101196 177.5996283 -18.47577393 178.43363159 -18.76916504 179.29290771 C-19.36945676 181.0483436 -19.97133685 182.80323703 -20.57470703 184.55761719 C-21.50103182 187.25300236 -22.42076449 189.95057431 -23.33984375 192.6484375 C-23.92408691 194.35430106 -24.50870904 196.06003488 -25.09375 197.765625 C-25.36981079 198.57598206 -25.64587158 199.38633911 -25.93029785 200.22125244 C-27.88494287 205.88494287 -27.88494287 205.88494287 -29 207 C-30.47250645 207.12232644 -31.95065711 207.1777456 -33.42797852 207.20532227 C-34.36887833 207.22526749 -35.30977814 207.24521271 -36.27919006 207.26576233 C-37.30209641 207.28247482 -38.32500275 207.29918732 -39.37890625 207.31640625 C-40.42070541 207.33718735 -41.46250458 207.35796844 -42.53587341 207.37937927 C-45.87801247 207.44499057 -49.22023285 207.50381331 -52.5625 207.5625 C-54.82227418 207.60567422 -57.08204001 207.64928814 -59.34179688 207.69335938 C-64.89444421 207.80068367 -70.44717321 207.90242812 -76 208 C-75.48424271 204.60846876 -74.93827919 201.41828365 -73.72265625 198.20703125 C-73.46250732 197.5106958 -73.2023584 196.81436035 -72.93432617 196.09692383 C-72.64662354 195.34306396 -72.3589209 194.5892041 -72.0625 193.8125 C-71.41389707 192.08339538 -70.76546908 190.35422513 -70.1171875 188.625 C-69.77010742 187.70460938 -69.42302734 186.78421875 -69.06542969 185.8359375 C-68.01508565 183.04015466 -66.97774072 180.23994418 -65.9453125 177.4375 C-61.88195445 166.41070772 -57.77841041 155.39992952 -53.63671875 144.40234375 C-52.84608911 142.30103326 -52.05548062 140.19971481 -51.26489258 138.09838867 C-49.71192218 133.97104038 -48.15521247 129.84512893 -46.59643555 125.7199707 C-42.50460281 114.86257515 -38.56070215 103.96842751 -34.7804718 92.99856567 C-32.18510638 85.48128429 -29.43012418 78.043229 -26.5625 70.625 C-23.11204327 61.6165361 -19.73717959 52.58762738 -16.5 43.5 C-13.10570139 33.97967125 -9.58668705 24.51161358 -6 15.0625 C-5.75612549 14.41909668 -5.51225098 13.77569336 -5.26098633 13.11279297 C-1.18831623 2.37663246 -1.18831623 2.37663246 0 0 Z " fill="#F3F0F1" transform="translate(430,544)"/>
<path d="M0 0 C42.9 0 85.8 0 130 0 C130 13.53 130 27.06 130 41 C102.28 41 74.56 41 46 41 C46 56.18 46 71.36 46 87 C71.08 87 96.16 87 122 87 C122 99.54 122 112.08 122 125 C96.92 125 71.84 125 46 125 C46 140.51 46 156.02 46 172 C74.71 172 103.42 172 133 172 C133 184.87 133 197.74 133 211 C89.11 211 45.22 211 0 211 C0 141.37 0 71.74 0 0 Z " fill="#F3EFF0" transform="translate(459,292)"/>
<path d="M0 0 C14.52 0 29.04 0 44 0 C44 68.64 44 137.28 44 208 C29.48 208 14.96 208 0 208 C0 139.36 0 70.72 0 0 Z " fill="#F3F0F1" transform="translate(588,544)"/>
<path d="M0 0 C2.48965556 3.02449363 3.88659715 5.88913838 5.234375 9.55859375 C5.64002686 10.65606934 6.04567871 11.75354492 6.46362305 12.88427734 C6.88812744 14.05684082 7.31263184 15.2294043 7.75 16.4375 C8.1931958 17.64873535 8.6363916 18.8599707 9.09301758 20.10791016 C12.62112566 29.81132528 15.94628509 39.57127158 19.14257812 49.38818359 C20.07509191 52.22873954 21.02771422 55.06201966 21.984375 57.89453125 C22.31091064 58.86342285 22.63744629 59.83231445 22.97387695 60.83056641 C23.60333244 62.69676558 24.23460124 64.5623544 24.86791992 66.42724609 C25.14740479 67.25949707 25.42688965 68.09174805 25.71484375 68.94921875 C25.96355225 69.68487061 26.21226074 70.42052246 26.46850586 71.1784668 C27 73 27 73 27 75 C9.18 75 -8.64 75 -27 75 C-25.26657335 69.22191116 -23.57088858 63.59968672 -21.546875 57.9453125 C-21.32587631 57.32529861 -21.10487762 56.70528473 -20.87718201 56.06648254 C-20.17046955 54.08514021 -19.46036018 52.10503712 -18.75 50.125 C-17.76072621 47.35842705 -16.77286273 44.59135157 -15.78515625 41.82421875 C-15.54311966 41.14688187 -15.30108307 40.46954498 -15.05171204 39.77168274 C-13.34566962 34.99049133 -11.68097538 30.19627266 -10.0324707 25.39501953 C-7.05871794 16.74613328 -3.76800874 8.33654682 0 0 Z " fill="#EF285A" transform="translate(457,595)"/>
<path d="M0 0 C42.9 0 85.8 0 130 0 C130 13.2 130 26.4 130 40 C102.28 40 74.56 40 46 40 C46 39.67 46 39.34 46 39 C73.06 38.67 100.12 38.34 128 38 C128.33 26.12 128.66 14.24 129 2 C87.09 2 45.18 2 2 2 C2 70.31 2 138.62 2 209 C44.57 209 87.14 209 131 209 C131 206.69 131 204.38 131 202 C131.33 202 131.66 202 132 202 C132 204.97 132 207.94 132 211 C88.44 211 44.88 211 0 211 C0 141.37 0 71.74 0 0 Z " fill="#F1FBFA" transform="translate(459,292)"/>
<path d="M0 0 C0.33 0 0.66 0 1 0 C1 67.98 1 135.96 1 206 C14.53 206 28.06 206 42 206 C42 138.35 42 70.7 42 1 C29.13 1 16.26 1 3 1 C3 0.67 3 0.34 3 0 C16.53 0 30.06 0 44 0 C44 68.64 44 137.28 44 208 C29.48 208 14.96 208 0 208 C0 139.36 0 70.72 0 0 Z " fill="#F0DFE3" transform="translate(588,544)"/>
<path d="M0 0 C0.70269516 -0.00029205 1.40539032 -0.00058411 2.12937927 -0.00088501 C4.4507179 0.0005077 6.77173506 0.01606591 9.09301758 0.03173828 C10.70298589 0.03546862 12.31295647 0.0383155 13.92292786 0.04031372 C18.15951815 0.04794851 22.39597123 0.06759565 26.63250732 0.08972168 C30.95591373 0.11018343 35.27934232 0.11931614 39.6027832 0.12939453 C48.08526803 0.15084172 56.56764136 0.18497577 65.05004883 0.22705078 C65.05004883 0.55705078 65.05004883 0.88705078 65.05004883 1.22705078 C56.47004883 1.55705078 47.89004883 1.88705078 39.05004883 2.22705078 C39.05004883 2.55705078 39.05004883 2.88705078 39.05004883 3.22705078 C23.87004883 3.22705078 8.69004883 3.22705078 -6.94995117 3.22705078 C-6.94995117 18.73705078 -6.94995117 34.24705078 -6.94995117 50.22705078 C-7.93995117 50.22705078 -8.92995117 50.22705078 -9.94995117 50.22705078 C-10.02583482 43.42780686 -10.07848043 36.62867156 -10.11474609 29.82910156 C-10.1298597 27.51460693 -10.15035113 25.20014105 -10.17626953 22.88574219 C-10.21253958 19.56454382 -10.22965161 16.2437231 -10.24291992 12.92236328 C-10.25840378 11.88274445 -10.27388763 10.84312561 -10.2898407 9.77200317 C-10.29018059 8.33073563 -10.29018059 8.33073563 -10.29052734 6.86035156 C-10.29718918 6.01207794 -10.30385101 5.16380432 -10.31071472 4.28982544 C-10.19166275 3.6091098 -10.07261078 2.92839417 -9.94995117 2.22705078 C-6.24775369 -0.24108087 -4.41816366 -0.01542116 0 0 Z " fill="#F3E5E6" transform="translate(511.949951171875,413.77294921875)"/>
<path d="M0 0 C28.38 0 56.76 0 86 0 C86 0.33 86 0.66 86 1 C57.95 1 29.9 1 1 1 C1.33 1.66 1.66 2.32 2 3 C2.08586809 5.32416296 2.10711043 7.65083307 2.09765625 9.9765625 C2.09515869 11.23033691 2.09266113 12.48411133 2.09008789 13.77587891 C2.08098389 15.37608887 2.07187988 16.97629883 2.0625 18.625 C2.041875 23.69875 2.02125 28.7725 2 34 C17.84 34 33.68 34 50 34 C50 34.66 50 35.32 50 36 C33.5 36 17 36 0 36 C0 24.12 0 12.24 0 0 Z " fill="#F1FBFA" transform="translate(325,388)"/>
<path d="M0 0 C2 3.75 2 3.75 2 6 C-15.82 6 -33.64 6 -52 6 C-51.67 4.35 -51.34 2.7 -51 1 C-50.01 1.33 -49.02 1.66 -48 2 C-46.45029552 2.08687799 -44.89710293 2.1176866 -43.3449707 2.11352539 C-42.40422195 2.11344986 -41.46347321 2.11337433 -40.49421692 2.11329651 C-38.97534126 2.10555458 -38.97534126 2.10555458 -37.42578125 2.09765625 C-35.86732735 2.09553383 -35.86732735 2.09553383 -34.27738953 2.09336853 C-30.95573052 2.08776656 -27.63413867 2.07521372 -24.3125 2.0625 C-22.06184993 2.05748525 -19.81119881 2.0529223 -17.56054688 2.04882812 C-12.04034163 2.03779649 -6.52017561 2.02105643 -1 2 C-0.67 1.34 -0.34 0.68 0 0 Z " fill="#F23661" transform="translate(482,664)"/>
<path d="M0 0 C3.14958831 3.42346555 3.56179109 6.44262737 4 11 C3.34 10.67 2.68 10.34 2 10 C1.375 7.9375 1.375 7.9375 1 6 C0.01 7.485 0.01 7.485 -1 9 C-1.66 9 -2.32 9 -3 9 C-2.01 6.03 -1.02 3.06 0 0 Z " fill="#F21C4B" transform="translate(457,595)"/>
<path d="M0 0 C2 3 2 3 1.7578125 5.04296875 C1.171875 7.02864583 0.5859375 9.01432292 0 11 C-0.99 11 -1.98 11 -3 11 C-2.01 7.37 -1.02 3.74 0 0 Z " fill="#F2E3E8" transform="translate(377,686)"/>
<path d="M0 0 C2.15546298 3.23319447 2.68074747 5.16896958 3 9 C2.01 10.485 2.01 10.485 1 12 C0.855625 11.2575 0.71125 10.515 0.5625 9.75 C0.05802414 7.08713438 0.05802414 7.08713438 -0.625 4.875 C-1 3 -1 3 0 0 Z " fill="#F03563" transform="translate(500,712)"/>
<path d="M0 0 C-2.97 0.66 -5.94 1.32 -9 2 C-9 1.34 -9 0.68 -9 0 C-4.5 -2.25 -4.5 -2.25 0 0 Z " fill="#F2DAE1" transform="translate(366,502)"/>
</svg>
